<svg xmlns="http://www.w3.org/2000/svg" fill="none" viewBox="0 0 24 24" id="Hugging-Face--Streamline-Svg-Logos" height="24" width="24">
  <desc>
    Hugging Face Streamline Icon: https://streamlinehq.com
  </desc>
  <path fill="#000b1b" d="M6.888175 12.94675v-1.870675h0.494975v0.69655h0.558275v-0.69655h0.494975v1.870675h-0.494975v-0.74245h-0.558275v0.74245h-0.494975Zm2.3586 0.034525c-0.157325 0 -0.271475 -0.05275 -0.342575 -0.158275 -0.070975 -0.107425 -0.10645 -0.25035 -0.10645 -0.428675v-0.88645h0.494975v0.82315c0 0.0921 0.0115 0.153475 0.034525 0.18415 0.024925 0.0307 0.0614 0.04605 0.109375 0.04605 0.046025 0 0.0844 -0.009575 0.1151 -0.02875 0.0307 -0.0192 0.0614 -0.051825 0.0921 -0.097875v-0.92665h0.494975v1.43875h-0.4029l-0.034525 -0.189925h-0.0115c-0.05755 0.06905 -0.121825 0.12375 -0.1928 0.164025 -0.069075 0.0403 -0.152525 0.060425 -0.250375 0.060425l0.000075 0.00005Zm1.750075 0.558275c-0.10935 0 -0.210075 -0.012475 -0.3021 -0.0374 -0.092075 -0.02305 -0.165925 -0.06045 -0.221575 -0.11225 -0.053725 -0.051775 -0.080575 -0.120875 -0.080575 -0.2072 0 -0.113175 0.067125 -0.205275 0.20145 -0.2763v-0.0115c-0.036775 -0.0272 -0.068875 -0.060275 -0.094975 -0.097825 -0.02495 -0.0403 -0.0374 -0.0902 -0.0374 -0.149675 0 -0.049875 0.0144 -0.0988 0.04315 -0.14675 0.0307 -0.047975 0.07005 -0.0892 0.118 -0.12375v-0.0115c-0.051825 -0.03455 -0.097825 -0.083475 -0.138125 -0.1468 -0.038375 -0.065225 -0.057575 -0.139075 -0.057575 -0.22155 0 -0.118975 0.028775 -0.2168 0.08635 -0.2934 0.059475 -0.078675 0.1362 -0.136225 0.2302 -0.172675 0.094025 -0.038375 0.193775 -0.057575 0.299375 -0.057575 0.0844 0 0.16115 0.011525 0.230225 0.03455h0.535175v0.356975h-0.2072c0.005725 0.017275 0.010525 0.03935 0.014375 0.066175 0.00575 0.026875 0.008625 0.0547 0.008625 0.08345 0 0.113225 -0.025875 0.2053 -0.0777 0.2763 -0.0518 0.06905 -0.1218 0.1199 -0.210075 0.1525 -0.08825 0.032625 -0.186075 0.048925 -0.2934 0.048925 -0.04795 0 -0.101675 -0.0067 -0.16115 -0.02015 -0.023025 0.0211 -0.034525 0.048925 -0.034525 0.08345 0 0.0307 0.01535 0.052775 0.04605 0.066225 0.0326 0.0134 0.0844 0.020125 0.1554 0.020125h0.215825c0.180325 0 0.319475 0.02975 0.417275 0.0892 0.09975 0.057575 0.14965 0.152525 0.14965 0.284975 0 0.103625 -0.03455 0.19475 -0.1036 0.2733 -0.06715 0.07865 -0.163075 0.14005 -0.2877 0.184175 -0.124675 0.044125 -0.272475 0.0662 -0.443075 0.0662l-0.000375 -0.000225Zm0.04605 -1.340925c0.04605 0 0.08345 -0.0163 0.112225 -0.048925 0.0288 -0.0326 0.04315 -0.083475 0.04315 -0.152525 0 -0.06715 -0.01435 -0.116075 -0.04315 -0.146775 -0.028775 -0.0326 -0.066175 -0.0489 -0.112225 -0.0489 -0.04605 0 -0.083475 0.0163 -0.112225 0.0489 -0.0288 0.0307 -0.043175 0.079625 -0.043175 0.146775 0 0.06905 0.014375 0.119925 0.043175 0.152525 0.02875 0.032625 0.066175 0.048925 0.112225 0.048925Zm0.034525 1.036125c0.080575 0 0.147725 -0.012475 0.201425 -0.037425 0.05375 -0.023025 0.080575 -0.054675 0.080575 -0.09495 0 -0.038375 -0.01725 -0.06235 -0.051775 -0.07195 -0.032625 -0.0096 -0.079625 -0.0144 -0.141025 -0.0144h-0.112225c-0.05755 0 -0.101675 -0.0019 -0.132375 -0.00575 -0.028775 -0.0019 -0.0537 -0.00575 -0.074825 -0.0115 -0.034525 0.034525 -0.0518 0.06905 -0.0518 0.1036 0 0.046025 0.0259 0.079625 0.0777 0.100725 0.053725 0.0211 0.12185 0.03165 0.204325 0.03165Zm1.49035 0.305075c-0.109375 0 -0.210075 -0.012475 -0.3021 -0.0374 -0.092075 -0.02305 -0.16595 -0.06045 -0.2216 -0.11225 -0.0537 -0.0518 -0.080575 -0.120875 -0.080575 -0.2072 0 -0.113175 0.067175 -0.205275 0.20145 -0.2763v-0.0115c-0.036775 -0.0272 -0.068875 -0.060275 -0.09495 -0.097825 -0.024975 -0.0403 -0.037425 -0.0902 -0.037425 -0.149675 0 -0.049875 0.0144 -0.0988 0.04315 -0.14675 0.0307 -0.047975 0.07005 -0.089225 0.118025 -0.12375v-0.011525c-0.0518 -0.034525 -0.09785 -0.08345 -0.13815 -0.146775 -0.038375 -0.065225 -0.05755 -0.139075 -0.05755 -0.221575 0 -0.11895 0.028775 -0.216775 0.086325 -0.293375 0.059475 -0.078675 0.1362 -0.136225 0.230225 -0.172675 0.094 -0.038375 0.19375 -0.057575 0.299375 -0.057575 0.08445 0 0.1612 0.011525 0.23025 0.03455h0.535175v0.356975h-0.2072c0.00575 0.017275 0.01055 0.03935 0.0144 0.066175 0.005725 0.026875 0.0086 0.0547 0.0086 0.08345 0 0.1132 -0.025875 0.2053 -0.077675 0.2763 -0.0518 0.06905 -0.121825 0.1199 -0.2101 0.1525 -0.088225 0.032625 -0.186075 0.048925 -0.293375 0.048925 -0.04795 0 -0.101675 -0.0067 -0.161175 -0.02015 -0.023 0.0211 -0.034525 0.048925 -0.034525 0.08345 0 0.0307 0.01535 0.05275 0.04605 0.0662 0.032625 0.013425 0.0844 0.02015 0.1554 0.02015h0.215825c0.18035 0 0.3195 0.029725 0.4173 0.0892 0.09975 0.057575 0.149625 0.152525 0.149625 0.284975 0 0.103625 -0.034525 0.194725 -0.1036 0.2733 -0.06715 0.07865 -0.163075 0.14005 -0.287675 0.184175 -0.1247 0.044125 -0.2725 0.0662 -0.4431 0.0662l-0.0004 -0.000225Zm0.046025 -1.34095c0.04605 0 0.08345 -0.0163 0.11225 -0.048925 0.028775 -0.0326 0.043175 -0.08345 0.043175 -0.1525 0 -0.06715 -0.0144 -0.116075 -0.043175 -0.146775 -0.0288 -0.0326 -0.0662 -0.0489 -0.11225 -0.0489 -0.046025 0 -0.08345 0.0163 -0.112225 0.0489 -0.028775 0.0307 -0.043175 0.079625 -0.043175 0.146775 0 0.06905 0.0144 0.1199 0.043175 0.1525 0.028775 0.032625 0.0662 0.048925 0.112225 0.048925Zm0.03455 1.03615c0.080575 0 0.1477 -0.012475 0.20145 -0.037425 0.0537 -0.023025 0.080575 -0.054675 0.080575 -0.094975 0 -0.03835 -0.017275 -0.06235 -0.051825 -0.071925 -0.0326 -0.0096 -0.079625 -0.0144 -0.141025 -0.0144h-0.112225c-0.057525 0 -0.101675 -0.0019 -0.132375 -0.00575 -0.028775 -0.0019 -0.0537 -0.00575 -0.0748 -0.0115 -0.03455 0.034525 -0.051825 0.06905 -0.051825 0.103575 0 0.04605 0.025925 0.079625 0.077725 0.10075 0.053725 0.0211 0.121825 0.03165 0.204325 0.03165Zm0.966575 -0.2877v-1.43875h0.494975v1.43875h-0.494975Zm0.2475 -1.617225c-0.080575 0 -0.145825 -0.02205 -0.1957 -0.066175 -0.0499 -0.04605 -0.074825 -0.1065 -0.074825 -0.1813 0 -0.074825 0.024925 -0.134325 0.074825 -0.17845 0.049875 -0.046025 0.115125 -0.06905 0.1957 -0.06905 0.080575 0 0.1458 0.023025 0.195675 0.06905 0.049875 0.044125 0.074825 0.103625 0.074825 0.17845 0 0.0748 -0.02495 0.13525 -0.074825 0.1813 -0.049875 0.044125 -0.1151 0.066175 -0.195675 0.066175Zm0.581625 1.617225v-1.43875h0.402875l0.03455 0.17265h0.0115c0.05755 -0.055625 0.1228 -0.103575 0.195675 -0.143875 0.074825 -0.0422 0.161175 -0.063325 0.259025 -0.063325 0.159225 0 0.273275 0.05375 0.34255 0.161175 0.071 0.105525 0.106475 0.2475 0.106475 0.425975v0.88645h-0.494975v-0.82315c0 -0.0921 -0.011525 -0.1535 -0.034525 -0.184175 -0.023025 -0.0307 -0.059475 -0.04605 -0.109375 -0.04605 -0.046025 0 -0.0844 0.009575 -0.1151 0.0288 -0.0307 0.019175 -0.065225 0.046025 -0.1036 0.080575v0.94375l-0.495075 -0.00005Zm2.1986 0.592775c-0.10935 0 -0.2101 -0.012475 -0.3021 -0.0374 -0.092075 -0.02305 -0.165925 -0.06045 -0.221575 -0.112275 -0.053725 -0.051775 -0.080575 -0.12085 -0.080575 -0.207175 0 -0.1132 0.067125 -0.205275 0.20145 -0.2763v-0.011525c-0.0368 -0.027175 -0.068875 -0.06025 -0.094975 -0.097825 -0.02495 -0.040275 -0.037425 -0.090175 -0.037425 -0.14965 0 -0.049875 0.0144 -0.0988 0.043175 -0.14675 0.0307 -0.047975 0.07005 -0.089225 0.117975 -0.12375v-0.011525c-0.0518 -0.034525 -0.09785 -0.08345 -0.138125 -0.146775 -0.038375 -0.065225 -0.05755 -0.1391 -0.05755 -0.221575 0 -0.11895 0.028775 -0.216775 0.08635 -0.2934 0.05945 -0.078675 0.1362 -0.1362 0.2302 -0.17265 0.094025 -0.038375 0.193775 -0.057575 0.299375 -0.057575 0.0844 0 0.16115 0.011525 0.2302 0.03455h0.5352v0.356975h-0.2072c0.00575 0.017275 0.01055 0.039325 0.0144 0.066175 0.00575 0.026875 0.008625 0.054675 0.008625 0.08345 0 0.1132 -0.0259 0.2053 -0.0777 0.2763 -0.0518 0.06905 -0.121825 0.1199 -0.210075 0.1525 -0.08825 0.032625 -0.1861 0.048925 -0.2934 0.048925 -0.047975 0 -0.101675 -0.0067 -0.16115 -0.02015 -0.023025 0.0211 -0.034525 0.048925 -0.034525 0.08345 0 0.0307 0.01535 0.05275 0.04605 0.0662 0.0326 0.013425 0.0844 0.020125 0.1554 0.020125h0.215825c0.180325 0 0.319475 0.02975 0.417275 0.089225 0.09975 0.057575 0.149625 0.152525 0.149625 0.284975 0 0.103625 -0.034525 0.194725 -0.1036 0.2733 -0.067125 0.07865 -0.16305 0.14005 -0.2877 0.18415 -0.1247 0.04415 -0.272475 0.066225 -0.443075 0.066225l-0.000375 -0.000225Zm0.046025 -1.34095c0.04605 0 0.083475 -0.0163 0.112225 -0.048925 0.0288 -0.0326 0.043175 -0.08345 0.043175 -0.1525 0 -0.06715 -0.014375 -0.1161 -0.043175 -0.146775 -0.02875 -0.0326 -0.066175 -0.0489 -0.112225 -0.0489 -0.046025 0 -0.08345 0.0163 -0.112225 0.0489 -0.028775 0.030675 -0.04315 0.079625 -0.04315 0.146775 0 0.06905 0.014375 0.1199 0.04315 0.1525 0.028775 0.032625 0.0662 0.048925 0.112225 0.048925Zm0.03455 1.03615c0.080575 0 0.147725 -0.012475 0.201425 -0.037425 0.05375 -0.023025 0.080575 -0.054675 0.080575 -0.094975 0 -0.03835 -0.01725 -0.06235 -0.051775 -0.071925 -0.032625 -0.0096 -0.079625 -0.0144 -0.141025 -0.0144h-0.112225c-0.05755 0 -0.101675 -0.0019 -0.132375 -0.005775 -0.028775 -0.0019 -0.053725 -0.005725 -0.074825 -0.011475 -0.03455 0.034525 -0.0518 0.06905 -0.0518 0.103575 0 0.04605 0.0259 0.079625 0.0777 0.10075 0.0537 0.0211 0.1218 0.03165 0.204325 0.03165Zm1.582975 -0.2877v-1.8707h1.22005v0.4143h-0.725075v0.356975h0.621575v0.414275h-0.621575v0.684875l-0.494975 0.000275Zm1.761475 0.034525c-0.09015 0 -0.16785 -0.020125 -0.233075 -0.060425 -0.062275 -0.041075 -0.11285 -0.097575 -0.14675 -0.164025 -0.034575 -0.06715 -0.051825 -0.140075 -0.051825 -0.218725 0 -0.14965 0.0614 -0.26665 0.184175 -0.350975 0.122775 -0.08635 0.3222 -0.143875 0.598475 -0.172675 -0.011525 -0.09975 -0.078675 -0.149625 -0.20145 -0.149625 -0.0518 0 -0.106475 0.010525 -0.164025 0.031625 -0.057575 0.0192 -0.12375 0.04895 -0.198575 0.089225l-0.17265 -0.3222c0.101675 -0.0614 0.204325 -0.1084 0.3078 -0.141025 0.105325 -0.03255 0.214925 -0.04905 0.325175 -0.048925 0.188025 0 0.3347 0.05375 0.440375 0.161175 0.1055 0.105525 0.158275 0.2763 0.158275 0.512375v0.80005h-0.402875l-0.03455 -0.13815h-0.0115c-0.057575 0.051825 -0.118975 0.094025 -0.1842 0.126625 -0.0633 0.0307 -0.134275 0.04605 -0.21295 0.04605l0.00015 -0.000375Zm0.172675 -0.3798c0.0403 0 0.073875 -0.008625 0.100725 -0.025875 0.02685 -0.019175 0.052775 -0.043175 0.0777 -0.07195v-0.1957c-0.117025 0.017275 -0.19855 0.043175 -0.2446 0.0777 -0.044125 0.03455 -0.0662 0.071975 -0.0662 0.11225 0 0.06905 0.04415 0.103575 0.132375 0.103575Zm1.646575 0.3798c-0.136225 0 -0.259025 -0.02975 -0.3684 -0.089225 -0.10935 -0.05945 -0.19665 -0.14485 -0.261875 -0.256125 -0.063325 -0.113175 -0.094975 -0.249375 -0.094975 -0.408575 0 -0.159225 0.0355 -0.294475 0.1065 -0.405875 0.072875 -0.1132 0.16785 -0.1995 0.284975 -0.259 0.117 -0.059475 0.243625 -0.089225 0.379775 -0.089225 0.08635 0 0.164075 0.01345 0.233125 0.0403 0.070975 0.026875 0.133325 0.063325 0.18705 0.109375l-0.230225 0.316475c-0.0307 -0.026825 -0.0585 -0.04505 -0.08345 -0.05465 -0.024775 -0.009575 -0.051125 -0.01445 -0.0777 -0.0144 -0.0921 0 -0.164025 0.0326 -0.215825 0.09785 -0.051825 0.0633 -0.0777 0.14965 -0.0777 0.258975 0 0.109375 0.026875 0.196675 0.080575 0.2619 0.0537 0.0633 0.118925 0.094975 0.195675 0.094975 0.0403 0 0.079625 -0.00865 0.117975 -0.025925 0.03935 -0.0186 0.076925 -0.040775 0.112275 -0.066175l0.1899 0.3222c-0.070975 0.063325 -0.149625 0.10745 -0.23595 0.132375 -0.08635 0.023025 -0.166925 0.034525 -0.241725 0.034525v0.000225Zm1.2874 0c-0.14005 0 -0.266675 -0.02975 -0.379775 -0.089225 -0.111275 -0.05945 -0.19955 -0.14485 -0.264775 -0.256125 -0.065225 -0.113175 -0.097825 -0.249375 -0.097825 -0.408575 0 -0.1554 0.0326 -0.288775 0.097825 -0.3999 0.067175 -0.1132 0.1535 -0.200475 0.259 -0.261875 0.105525 -0.0614 0.2168 -0.0921 0.3339 -0.0921 0.14195 0 0.259 0.031675 0.350975 0.094975 0.094025 0.0614 0.163075 0.14485 0.2072 0.250375 0.04605 0.1055 0.069075 0.22255 0.069075 0.350975 0 0.0422 -0.002875 0.083475 -0.008625 0.12375 -0.003825 0.038375 -0.0077 0.066175 -0.011525 0.08345h-0.82015c0.023 0.08635 0.064275 0.146775 0.12375 0.1813 0.05945 0.032625 0.1295 0.048925 0.210075 0.048925 0.0921 0 0.189925 -0.028775 0.2934 -0.08635l0.16115 0.2934c-0.07675 0.053725 -0.163075 0.094975 -0.259 0.12375 -0.095925 0.028775 -0.184175 0.043175 -0.26475 0.043175l0.000075 0.000075Zm-0.270525 -0.92665h0.425975c0 -0.055625 -0.0144 -0.103575 -0.04315 -0.143875 -0.026875 -0.042225 -0.0777 -0.063325 -0.152525 -0.063325 -0.053725 0 -0.101675 0.016325 -0.1439 0.048925 -0.042225 0.032625 -0.070975 0.085375 -0.086325 0.158275h-0.000075Z" stroke-width="0.25"></path>
  <path fill="#ffffff" d="M5.826025 13.22115c-0.014575 -0.055075 -0.0382 -0.1073 -0.069925 -0.154625 0.0068 -0.02495 0.011975 -0.05025 0.01545 -0.075825 0.022475 -0.16235 -0.033775 -0.31105 -0.139875 -0.425975 -0.05745 -0.0628 -0.119025 -0.10425 -0.18425 -0.129725 0.0428 -0.183175 0.064475 -0.37055 0.0646 -0.5588 0 -0.0859 -0.004875 -0.170075 -0.013025 -0.252975 -0.00425 -0.0414 -0.0094 -0.082725 -0.0154 -0.1239 -0.0187 -0.121525 -0.0464 -0.2415 -0.0829 -0.358875 -0.02395 -0.077125 -0.051625 -0.153075 -0.08295 -0.2275 -0.046975 -0.11025 -0.101825 -0.21695 -0.1641 -0.3192 -0.0409 -0.068075 -0.0854 -0.133925 -0.13335 -0.19725 -0.0235 -0.031975 -0.047975 -0.0632 -0.07345 -0.093625 -0.075475 -0.09175 -0.15745 -0.17785 -0.2454 -0.257725 -0.029175 -0.02685 -0.0592 -0.052775 -0.090025 -0.077725 -0.03035 -0.025325 -0.061375 -0.049825 -0.093025 -0.0735 -0.0637 -0.0474 -0.12955 -0.0919 -0.1973 -0.1333 -0.37435 -0.227375 -0.813375 -0.357775 -1.2828 -0.357775 -1.36621 0 -2.4735175 1.1073 -2.4735175 2.4735 -0.000035 0.1905 0.022035 0.38035 0.06577 0.565625 -0.05868 0.025475 -0.1149425 0.06515 -0.167075 0.122625 -0.1060575 0.114925 -0.162345 0.26305 -0.139825 0.425425 0.003395 0.0258 0.0085575 0.05135 0.0154025 0.07645 -0.031675 0.04735 -0.05531 0.0996 -0.069925 0.154675 -0.03260025 0.1239 -0.0218695 0.23565 0.01956 0.3336 -0.0450155 0.128 -0.0337675 0.26425 0.024885 0.382775 0.04265 0.086525 0.1036925 0.15345 0.1789175 0.2133 0.08946 0.071075 0.20144 0.131525 0.3365925 0.189475 0.1611525 0.068725 0.3577825 0.1333 0.44716 0.157 0.23108 0.05985 0.452595 0.097775 0.6772625 0.0996 0.32002 0.002975 0.5954925 -0.072275 0.7927175 -0.2648 0.0969 0.011875 0.194425 0.017825 0.29205 0.0178 0.10315 -0.000225 0.206175 -0.00675 0.3086 -0.01945 0.1968 0.19375 0.47325 0.269675 0.79435 0.2666 0.224525 -0.00175 0.446075 -0.039675 0.67645 -0.099625 0.09005 -0.023675 0.2866 -0.08825 0.447975 -0.15695 0.1351 -0.0581 0.24705 -0.1185 0.337125 -0.189525 0.07465 -0.059825 0.13565 -0.12675 0.178325 -0.213275 0.05925 -0.118475 0.069925 -0.25475 0.025475 -0.382775 0.04105 -0.0979 0.0517 -0.209875 0.019125 -0.3336l0.000325 -0.00015Zm-0.22925 0.325175c0.0454 0.08615 0.0483 0.1835 0.008225 0.274125 -0.060725 0.1374 -0.211625 0.2456 -0.50475 0.36185 -0.1822 0.0723 -0.349075 0.118475 -0.35045 0.1189 -0.241025 0.062525 -0.4591 0.09425 -0.64765 0.09425 -0.3124 0 -0.54495 -0.0862 -0.692475 -0.256475 -0.24935 0.04245 -0.503925 0.0439 -0.75385 0.004275 -0.147625 0.16745 -0.37871 0.2522 -0.68868 0.2522 -0.1887275 0 -0.4066825 -0.031725 -0.64765 -0.09425 -0.001495 -0.000425 -0.16827 -0.0466 -0.3504475 -0.1189 -0.2931275 -0.1162 -0.4439 -0.22435 -0.504755 -0.36185 -0.04007 -0.09065 -0.0371625 -0.188 0.0082325 -0.274125 0.00421 -0.007975 0.0086925 -0.0158 0.0135025 -0.023325 -0.0272225 -0.04085 -0.04545 -0.08705 -0.053545 -0.13545 -0.00809 -0.048425 -0.00584 -0.098025 0.006605 -0.1455 0.01804 -0.068525 0.0553125 -0.125525 0.105895 -0.16645 -0.0243575 -0.04005 -0.04034 -0.0846 -0.0469975 -0.131 -0.01456 -0.1009 0.0189075 -0.20165 0.0942675 -0.2839 0.0586525 -0.063925 0.1415925 -0.0991 0.2334425 -0.0991h0.002445c-0.0692475 -0.221925 -0.1043475 -0.453125 -0.10413 -0.685675 0 -1.267875 1.02798 -2.29585 2.29584 -2.29585 1.268125 0 2.29585 1.027975 2.29585 2.29585 0.00015 0.233075 -0.0352 0.464825 -0.10485 0.6873 0.0111 -0.001075 0.02195 -0.00165 0.0326 -0.00165 0.091825 0 0.1748 0.03515 0.23345 0.099075 0.0753 0.082075 0.10885 0.182925 0.094275 0.2839 -0.006675 0.0464 -0.02265 0.090975 -0.047 0.131025 0.050575 0.0409 0.08785 0.0979 0.105875 0.16645 0.012425 0.047475 0.014675 0.09705 0.006575 0.1455 -0.008075 0.0484 -0.026325 0.09455 -0.0535 0.13545 0.0048 0.00745 0.00935 0.015275 0.0135 0.02325l0.00015 0.0001Z" stroke-width="0.25"></path>
  <path fill="#ff9d00" d="M5.58165 13.5227c0.0272 -0.040875 0.045425 -0.087025 0.053525 -0.13545 0.0081 -0.048425 0.00585 -0.098 -0.006575 -0.1455 -0.018025 -0.0685 -0.0553 -0.1255 -0.1059 -0.16645 0.02435 -0.04005 0.04035 -0.0846 0.047 -0.131 0.014575 -0.1009 -0.0189 -0.20165 -0.09425 -0.283875 -0.058675 -0.063925 -0.141625 -0.0991 -0.23345 -0.0991 -0.010675 0 -0.021525 0.000525 -0.0326 0.00165 0.069575 -0.22245 0.10485 -0.454225 0.10465 -0.687325 0 -1.26785 -1.027975 -2.295825 -2.29585 -2.295825 -1.2678575 0 -2.2958375 1.0277 -2.2958375 2.295825 -0.00022 0.232475 0.0348825 0.46375 0.10413 0.6857h-0.002445c-0.091825 0 -0.1747625 0.035175 -0.233415 0.0991 -0.0753075 0.082075 -0.10883 0.182875 -0.0942675 0.283875 0.0066475 0.0464 0.022635 0.090975 0.0469975 0.131 -0.050585 0.04095 -0.0878575 0.09795 -0.1058675 0.166475 -0.0124375 0.0475 -0.0146825 0.0971 -0.00658 0.14555 0.0081 0.0484 0.02636 0.094575 0.0535725 0.13545 -0.0048625 0.007525 -0.00932 0.01535 -0.0135025 0.023325 -0.0453675 0.08615 -0.0483025 0.183475 -0.0082325 0.2741 0.0607175 0.1374 0.2116275 0.24565 0.504755 0.361875 0.182205 0.072275 0.34909 0.118475 0.3504475 0.1189 0.24102 0.062525 0.459115 0.094275 0.64765 0.094275 0.30997 0 0.541145 -0.084775 0.68867 -0.25225 0.249825 0.03965 0.504475 0.0382 0.753875 -0.00425 0.147425 0.170275 0.38005 0.2565 0.692475 0.2565 0.1887 0 0.406675 -0.03175 0.64765 -0.094275 0.00145 -0.000425 0.168275 -0.046625 0.35045 -0.1189 0.293125 -0.116175 0.4439 -0.224425 0.50475 -0.361875 0.040075 -0.09065 0.03715 -0.187975 -0.008225 -0.2741 -0.004175 -0.008075 -0.008725 -0.015875 -0.01355 -0.023325l-0.00005 -0.0001Zm-3.031775 0.358075c-0.0127 0.02225 -0.026325 0.04395 -0.040825 0.06505 -0.03817 0.055875 -0.088375 0.098575 -0.14662 0.130325 -0.11141 0.060725 -0.252375 0.08195 -0.3955425 0.08195 -0.2262425 0 -0.4583 -0.05295 -0.588155 -0.086675 -0.006385 -0.001675 -0.796795 -0.22495 -0.6968225 -0.4151 0.016845 -0.03195 0.0445825 -0.044725 0.0794625 -0.044725 0.1409125 0 0.3974475 0.209825 0.5077425 0.209825 0.0246125 0 0.042 -0.0105 0.04909 -0.036075 0.0469975 -0.168575 -0.7142075 -0.239425 -0.650095 -0.48355 0.01133 -0.0432 0.042 -0.060725 0.0851675 -0.060725 0.18628 -0.000025 0.604455 0.327625 0.69193 0.327625 0.00671 0 0.01152 -0.00195 0.0141275 -0.006075l0.00114 -0.001875c0.0410225 -0.067775 0.017495 -0.117075 -0.2637325 -0.289325l-0.0270025 -0.01645c-0.3094275 -0.1873 -0.5267575 -0.2999 -0.40315 -0.434375 0.0142075 -0.01555 0.0343375 -0.022425 0.058815 -0.022425 0.02904 0 0.0641675 0.009725 0.1028525 0.026 0.1634325 0.068925 0.3898375 0.2569 0.48465 0.338775 0.0279 0.024275 0.044335 0.039125 0.044335 0.039125s0.119805 0.124575 0.1922575 0.124575c0.01668 0 0.0308075 -0.00655 0.0403975 -0.022825 0.0513975 -0.0866 -0.477045 -0.4871 -0.5069275 -0.652275 -0.020185 -0.111975 0.01418 -0.168675 0.0777775 -0.168675 0.03021 0 0.0671025 0.01285 0.107825 0.0387 0.1263225 0.0802 0.3702775 0.499325 0.459655 0.662325 0.0299375 0.05465 0.08104 0.07775 0.127085 0.07775 0.0913625 0 0.1627825 -0.090825 0.0083675 -0.206225 -0.2320825 -0.173675 -0.1506375 -0.4575 -0.03988 -0.474875 0.0047275 -0.000725 0.0095075 -0.001125 0.0142625 -0.00115 0.100735 0 0.1451775 0.1736 0.1451775 0.1736s0.13021 0.327075 0.35398 0.550675c0.203005 0.2029 0.231355 0.36945 0.113105 0.577l-0.00045 0.0001Zm0.72345 0.0383 -0.0116 0.001375 -0.0198 0.002275c-0.0104 0.001075 -0.020825 0.0021 -0.031275 0.003075l-0.010225 0.000925 -0.009275 0.0008 -0.013225 0.00105c-0.004875 0.00035 -0.009725 0.000725 -0.0146 0.001025l-0.01455 0.001 -0.003225 0.000175 -0.01145 0.000675 -0.004875 0.00025 -0.013575 0.000675 -0.015775 0.00065 -0.01435 0.0005 -0.009575 0.000275h-0.004825c-0.003 0 -0.00595 0.00015 -0.00895 0.000175h-0.00475c-0.002975 0 -0.00595 0 -0.008925 0.000175l-0.01215 0.000125h-0.017c-0.01335 0 -0.026625 -0.000125 -0.039925 -0.000375l-0.01075 -0.00025c-0.00305 0 -0.0061 -0.00015 -0.00915 -0.000225l-0.011375 -0.000375 -0.0142 -0.000525 -0.012725 -0.00055 -0.003325 -0.00015 -0.01215 -0.00065c-0.00335 -0.000175 -0.006725 -0.00035 -0.010075 -0.00055l-0.00785 -0.000475c-0.00985 -0.000625 -0.019725 -0.001325 -0.029575 -0.0021l-0.010325 -0.0008 -0.01305 -0.001125 -0.015225 -0.0014c-0.0085 -0.0008 -0.017025 -0.001675 -0.025525 -0.002625h-0.0004c0.12415 -0.277075 0.061375 -0.5357 -0.1895 -0.786175 -0.1645325 -0.164325 -0.2741225 -0.406975 -0.29667 -0.4602 -0.0459675 -0.157725 -0.167645 -0.333075 -0.3697375 -0.333075 -0.0170875 0.000025 -0.03412 0.001375 -0.05099 0.00405 -0.0885375 0.0139 -0.1659075 0.064875 -0.22111 0.141525 -0.05963 -0.074175 -0.11763 -0.13315 -0.17006 -0.1665 -0.079055 -0.050075 -0.15792 -0.075525 -0.2348 -0.075525 -0.0959 0 -0.1816625 0.0394 -0.24143 0.11085l-0.001495 0.001825 -0.0033675 -0.01415 -0.000135 -0.0006c-0.0113675 -0.048625 -0.0209175 -0.0977 -0.028635 -0.147025 0 -0.00035 0 -0.000675 -0.0001625 -0.001l-0.001685 -0.011175c-0.00091 -0.006025 -0.0017975 -0.0121 -0.0026625 -0.018125 -0.000705 -0.005025 -0.0014125 -0.01005 -0.0020625 -0.01505 -0.0006525 -0.005 -0.00136 -0.010025 -0.0019575 -0.01505 -0.0006525 -0.00505 -0.00125 -0.010075 -0.0018475 -0.0151 -0.0005725 -0.004775 -0.001125 -0.009575 -0.0016575 -0.01435l-0.00016 -0.001225c-0.00245 -0.02205 -0.00455 -0.04415 -0.006305 -0.06625l-0.00095 -0.0128c-0.0002725 -0.0035 -0.0005175 -0.007025 -0.000735 -0.0106 0 -0.0008 -0.0001075 -0.00165 -0.0001625 -0.0024l-0.0008925 -0.0142c-0.0003275 -0.005125 -0.000575 -0.01025 -0.000845 -0.0154 -0.0002725 -0.0051 -0.000545 -0.010225 -0.0007625 -0.0154l-0.0005425 -0.01345 -0.0001625 -0.004075 -0.0004075 -0.01245 -0.0002975 -0.010525c0 -0.004225 -0.0001925 -0.00845 -0.0002725 -0.012675l-0.0002175 -0.013275c-0.000055 -0.004425 0 -0.008825 -0.00011 -0.01325 -0.000135 -0.00445 0 -0.0089 0 -0.01335 0 -1.1369 0.92176 -2.058675 2.0589375 -2.058675 1.1372 0 2.05895 0.921775 2.05895 2.058675v0.0266c0 0.004425 -0.0001 0.008875 -0.0002 0.013275 0 0.0037 -0.00015 0.007325 -0.00025 0.011025 0 0.003275 -0.000125 0.006525 -0.000275 0.009725 0 0.00415 -0.00025 0.008275 -0.000375 0.012425v0.00035c-0.00035 0.009025 -0.000725 0.01805 -0.001125 0.027075l-0.00015 0.002975 -0.0007 0.013475 -0.000675 0.010675c-0.0015 0.0253 -0.0035 0.0506 -0.0059 0.075825v0.00035c-0.00045 0.004725 -0.000925 0.0095 -0.00145 0.014225 -0.0012 0.011 -0.002425 0.022 -0.00365 0.033l-0.001375 0.01105 -0.001725 0.013c-0.000575 0.00475 -0.001225 0.009475 -0.001925 0.0142 -0.000725 0.0053 -0.001525 0.010575 -0.002275 0.015825l-0.0019 0.01245 -0.002225 0.014125c-0.000775 0.0047 -0.001525 0.009375 -0.002425 0.014075 -0.000925 0.004675 -0.001625 0.00935 -0.00245 0.01405 -0.001625 0.00935 -0.0033 0.01865 -0.005125 0.027975 -0.003625 0.01855 -0.0074 0.03705 -0.011375 0.055525 -0.001025 0.0046 -0.00205 0.009225 -0.0031 0.0138 -0.05795 -0.0563 -0.134675 -0.086975 -0.219325 -0.086975 -0.0768 0 -0.15575 0.0254 -0.234775 0.075525 -0.05245 0.0333 -0.1104 0.0923 -0.170075 0.1665 -0.0553 -0.0767 -0.13265 -0.127625 -0.2211 -0.141575 -0.01685 -0.002625 -0.033925 -0.003975 -0.051 -0.004025 -0.2021 0 -0.323825 0.175325 -0.36975 0.333075 -0.022775 0.053275 -0.132275 0.29585 -0.296925 0.460475 -0.2507 0.249875 -0.31405 0.507475 -0.19175 0.7832l-0.00015 -0.000125Zm2.1255 -0.554475 -0.0008 0.002425c-0.000575 0.00155 -0.00115 0.0031 -0.001775 0.0046 -0.000975 0.002325 -0.002 0.004575 -0.0031 0.006825 -0.002625 0.005375 -0.005625 0.0106 -0.0089 0.0156 -0.00455 0.006775 -0.009525 0.013225 -0.014925 0.019325 -0.00125 0.0014 -0.00245 0.0028 -0.00385 0.004175 -0.0019 0.0021 -0.00395 0.004125 -0.00595 0.006175 -0.0366 0.03625 -0.09235 0.068025 -0.155375 0.0972 -0.00715 0.003225 -0.014375 0.00645 -0.0217 0.0097l-0.007275 0.003225c-0.004875 0.00215 -0.0097 0.0043 -0.014825 0.006375 -0.00495 0.002125 -0.00995 0.004225 -0.01495 0.006275l-0.015175 0.006275c-0.03545 0.0146 -0.071775 0.028475 -0.107225 0.042225l-0.015125 0.005875 -0.015 0.00585c-0.009925 0.0039 -0.019775 0.007775 -0.029475 0.011675l-0.014425 0.0058 -0.01415 0.005825 -0.006975 0.0029c-0.004625 0.00195 -0.0092 0.00385 -0.0137 0.005825 -0.104275 0.0447 -0.17925 0.0902 -0.163475 0.146675 0.000425 0.001625 0.000925 0.003125 0.00145 0.0046 0.001425 0.004175 0.00335 0.00815 0.00575 0.01185 0.0014 0.002225 0.003025 0.004325 0.00485 0.006225 0.018525 0.019225 0.05225 0.016175 0.09475 0.000925 0.00345 -0.00125 0.007 -0.0026 0.01055 -0.004 0.00245 -0.000925 0.00485 -0.0019 0.0073 -0.002875l0.003675 -0.00155c0.009725 -0.004125 0.020025 -0.008725 0.03055 -0.01375 0.00265 -0.001225 0.0053 -0.002425 0.007975 -0.003825 0.051975 -0.0254 0.1109 -0.059675 0.16935 -0.090825 0.008975 -0.00485 0.01795 -0.0095 0.0269 -0.014125 0.014625 -0.007575 0.029375 -0.014875 0.04425 -0.021875 0.055375 -0.026025 0.1074 -0.0445 0.14925 -0.0445 0.019625 0 0.036975 0.004025 0.0514 0.013275l0.002425 0.0016c0.0073 0.00515 0.01365 0.011475 0.01885 0.018775 0.0012 0.0017 0.00245 0.003475 0.0035 0.005275 0.00115 0.001875 0.002225 0.003825 0.003275 0.005775 0.020675 0.039225 0.00335 0.0799 -0.037125 0.11975 -0.038875 0.03825 -0.09935 0.075775 -0.1681 0.1105 -0.005075 0.0026 -0.010225 0.005175 -0.015375 0.007675 -0.2046 0.10045 -0.472425 0.176125 -0.476225 0.177075 -0.0714 0.0185 -0.1735 0.0428 -0.288525 0.060975l-0.017025 0.00265 -0.002775 0.0004c-0.026075 0.0039 -0.052225 0.00735 -0.07845 0.01035l-0.002425 0.00025c-0.047675 0.005425 -0.096575 0.009375 -0.14555 0.011025h-0.000725c-0.017625 0.00065 -0.0352 0.00095 -0.0528 0.00095h-0.02025c-0.02685 -0.000375 -0.053675 -0.001575 -0.080425 -0.00365 -0.000625 0 -0.001275 0 -0.001925 -0.000125 -0.009575 -0.000725 -0.01915 -0.001625 -0.0287 -0.0027 -0.0164 -0.00175 -0.032775 -0.003925 -0.0491 -0.006475 -0.006375 -0.001075 -0.01315 -0.002175 -0.0197 -0.003325 -0.003 -0.00055 -0.00595 -0.001075 -0.008925 -0.001675l-0.0007 -0.00015c-0.009425 -0.0018 -0.0188 -0.003775 -0.02815 -0.005925 -0.0054 -0.001225 -0.010825 -0.002425 -0.016175 -0.003875l-0.0032 -0.00085c-0.002675 -0.00065 -0.005275 -0.00135 -0.0079 -0.00205l-0.001425 -0.0004 -0.0084 -0.0024c-0.00305 -0.000875 -0.00605 -0.001775 -0.0091 -0.002675l-0.001075 -0.000325 -0.007925 -0.002425c-0.002975 -0.0009 -0.00595 -0.0019 -0.0089 -0.00285 -0.00245 -0.0008 -0.004875 -0.00165 -0.0073 -0.002425l-0.005375 -0.001875c-0.00515 -0.0018 -0.01025 -0.0037 -0.015375 -0.00565l-0.004825 -0.001875 -0.004 -0.001625c-0.007675 -0.003075 -0.01535 -0.006325 -0.022925 -0.009725l-0.00505 -0.0024 -0.00085 -0.000375c-0.001775 -0.00085 -0.00355 -0.0017 -0.00535 -0.00245 -0.0035 -0.0017 -0.006975 -0.003425 -0.010425 -0.0052l-0.001025 -0.0005 -0.005 -0.00265c-0.0089 -0.004625 -0.0176 -0.00955 -0.02615 -0.014825l-0.004675 -0.00285c-0.0024 -0.001475 -0.0046 -0.002975 -0.006925 -0.00445l-0.006075 -0.00405c-0.0022 -0.001475 -0.0044 -0.002975 -0.00655 -0.004525l-0.0039 -0.002775c-0.00415 -0.00295 -0.008175 -0.005975 -0.012175 -0.0091 -0.002125 -0.001625 -0.004225 -0.0033 -0.0063 -0.00485 -0.00465 -0.003725 -0.0092 -0.00755 -0.013675 -0.0115l-0.0002 -0.00015c-0.00435 -0.003775 -0.008625 -0.0077 -0.012775 -0.0117l-0.000225 -0.00025c-0.002175 -0.002075 -0.0043 -0.00415 -0.0064 -0.006275 -0.0021 -0.00215 -0.004225 -0.004275 -0.00625 -0.006425 -0.002075 -0.002175 -0.00415 -0.004375 -0.00615 -0.006625 -0.00195 -0.002125 -0.00385 -0.004275 -0.00575 -0.00645l-0.00065 -0.000725c-0.009825 -0.011375 -0.019 -0.0233 -0.0275 -0.035725l-0.003375 -0.004975c-0.002225 -0.003275 -0.004425 -0.0066 -0.0066 -0.0099l-0.0064 -0.009875c-0.00315 -0.0048 -0.006225 -0.009675 -0.009225 -0.01455 -0.00215 -0.003475 -0.00425 -0.006975 -0.00635 -0.010475 -0.001775 -0.002975 -0.003525 -0.00595 -0.005225 -0.008875 -0.00095 -0.0016 -0.00185 -0.003225 -0.002725 -0.004875 -0.0009 -0.001675 -0.001975 -0.003375 -0.002925 -0.0051l-0.001525 -0.002675c-0.0005 -0.0009 -0.000675 -0.001175 -0.00095 -0.001775 -0.00185 -0.003225 -0.003625 -0.006525 -0.005375 -0.00985 -0.000775 -0.00145 -0.001575 -0.002925 -0.0024 -0.00435l-0.00245 -0.004675 -0.002425 -0.00465 -0.004675 -0.009425c-0.00075 -0.00155 -0.0015 -0.0031 -0.002225 -0.00465 -0.0016 -0.00335 -0.003125 -0.006625 -0.00465 -0.009925 -0.0006 -0.001325 -0.001225 -0.00265 -0.00175 -0.003975 -0.0021 -0.00455 -0.004075 -0.009125 -0.00595 -0.013775 -0.0013 -0.003075 -0.00245 -0.006125 -0.0037 -0.00915 -0.0035 -0.008975 -0.0068 -0.018025 -0.009825 -0.027175 -0.000875 -0.002725 -0.001775 -0.0054 -0.002575 -0.008125 -0.00195 -0.006175 -0.003725 -0.0124 -0.0053 -0.018675 -0.001925 -0.0073 -0.003625 -0.014675 -0.005075 -0.0221 -0.000925 -0.004375 -0.001725 -0.008775 -0.002425 -0.0132 -0.000725 -0.004375 -0.00135 -0.00875 -0.001875 -0.0131 -0.0011 -0.008675 -0.0019 -0.01735 -0.00235 -0.026075 0 -0.00145 -0.00015 -0.0029 -0.000175 -0.00435 -0.000125 -0.002875 -0.0002 -0.00575 -0.000225 -0.00865 -0.001525 -0.11605 0.057225 -0.227675 0.182825 -0.35315 0.223675 -0.2235 0.353975 -0.550675 0.353975 -0.550675s0.0035 -0.013725 0.010825 -0.033425c0.002425 -0.00655 0.004975 -0.013075 0.007675 -0.019525 0.003075 -0.007275 0.00635 -0.014475 0.0099 -0.021525l0.001025 -0.002075c0.004525 -0.009025 0.00945 -0.0178 0.0148 -0.02635 0.001225 -0.001975 0.002425 -0.003975 0.003825 -0.005925 0.003975 -0.005925 0.008175 -0.01165 0.012625 -0.017225 0.0034 -0.004275 0.00705 -0.0084 0.010875 -0.0123 0.013 -0.013375 0.0278 -0.0243 0.04455 -0.030125l0.002125 -0.000675c0.001425 -0.000475 0.0028 -0.0009 0.00425 -0.001325 0.001675 -0.000425 0.00335 -0.000825 0.00505 -0.001175l0.00075 -0.00015c0.003575 -0.0007 0.007125 -0.0012 0.010725 -0.001425h0.000325c0.001875 0 0.00375 -0.0002 0.0057 -0.0002 0.0048 0.000025 0.009575 0.0004 0.014325 0.00115 0.020175 0.003175 0.039375 0.015175 0.0559 0.0337l0.002225 0.0026c0.005375 0.006325 0.01025 0.01305 0.0146 0.020125 0.003275 0.005225 0.00635 0.01075 0.00925 0.016525 0.001175 0.00245 0.002275 0.004675 0.0034 0.007075 0.000525 0.001225 0.001075 0.002425 0.0016 0.003675 0.001075 0.0024 0.002075 0.00485 0.0031 0.0074 0.005675 0.014575 0.010075 0.0296 0.013175 0.0449 0.003275 0.01655 0.005175 0.03335 0.005725 0.050225 0.0002 0.0074 0.0002 0.0149 0 0.0225 -0.000125 0.0029 -0.000275 0.0058 -0.0005 0.0087 -0.002225 0.0323 -0.00925 0.0641 -0.020875 0.094325 -0.001175 0.003 -0.00245 0.006025 -0.00365 0.009075 -0.005825 0.013975 -0.012625 0.0275 -0.0203 0.040525 -0.004375 0.00745 -0.0091 0.01485 -0.01415 0.022175l-0.0031 0.0044c-0.011975 0.016725 -0.025325 0.03245 -0.03995 0.04695 -0.0144 0.014425 -0.029825 0.02775 -0.04615 0.03995 -0.0164 0.0121 -0.03175 0.025525 -0.045925 0.0401 -0.040825 0.042875 -0.050325 0.080675 -0.04115 0.109325 0.001075 0.003225 0.00235 0.0064 0.003825 0.009475 0.0034 0.00665 0.0078 0.012775 0.013075 0.0181l0.001425 0.001425c0.0015 0.00145 0.003075 0.00285 0.004675 0.004175l0.00165 0.001325c0.00395 0.00305 0.00815 0.00575 0.0125 0.008125 0.00125 0.000675 0.002425 0.00135 0.003875 0.002 0.006 0.003 0.012275 0.005375 0.01875 0.0072l0.001775 0.000475 0.002425 0.00065 0.002125 0.0005 0.00225 0.0005 0.00225 0.000475 0.00215 0.00035c0.0016 0.0003 0.003225 0.000525 0.004825 0.00075l0.001575 0.000225 0.0028 0.0003 0.00175 0.00015 0.002875 0.000225h0.00165l0.003 0.000125h0.009425l0.0027 -0.000125 0.003075 -0.0002 0.003775 -0.00035 0.00355 -0.000425c0.000775 0 0.0016 -0.000225 0.0024 -0.00035 0.01245 -0.001825 0.024575 -0.005325 0.036025 -0.01045 0.00245 -0.001025 0.004875 -0.002175 0.0071 -0.00335 0.004775 -0.0024 0.009425 -0.0051 0.013875 -0.00805 0.006225 -0.004075 0.0121 -0.008675 0.0176 -0.013675l0.00385 -0.003625c0.0006 -0.0006 0.001225 -0.001175 0.001775 -0.0018 0.00375 -0.00375 0.0073 -0.007725 0.010575 -0.011875 0.005825 -0.007325 0.010975 -0.015125 0.01545 -0.023325 0.053175 -0.096675 0.1089 -0.1919 0.1671 -0.285525l0.008 -0.0128 0.008075 -0.012825c0.00405 -0.00645 0.008075 -0.012875 0.012125 -0.0192l0.0041 -0.006375 0.0082 -0.01275c0.010975 -0.016975 0.021975 -0.033775 0.03305 -0.0504l0.008275 -0.012375c0.01665 -0.024625 0.033225 -0.048575 0.04965 -0.071375l0.0082 -0.01125c0.01785 -0.02465 0.03645 -0.04875 0.055775 -0.072275l0.007675 -0.0092c0.00125 -0.00155 0.002425 -0.003025 0.003825 -0.004525l0.007525 -0.008725c0.00125 -0.00145 0.002425 -0.00285 0.00375 -0.00425l0.007275 -0.008225 0.00365 -0.00395c0.00355 -0.00385 0.007125 -0.007625 0.010775 -0.011375 0.00245 -0.0024 0.0047 -0.00485 0.00705 -0.0071 0.013775 -0.0141 0.028975 -0.02675 0.04535 -0.0377l0.003775 -0.0024 0.003825 -0.00245c0.00245 -0.001525 0.004925 -0.003 0.00745 -0.004375 0.064225 -0.036425 0.1174 -0.039125 0.148 -0.008525 0.01855 0.01855 0.0288 0.049275 0.02825 0.092 0 0.0019 0 0.003775 -0.00015 0.00575v0.0021c0 0.001925 -0.000175 0.003925 -0.0003 0.0059 0 0.002425 -0.0003 0.004875 -0.00055 0.007275 -0.00025 0.00245 -0.00035 0.0043 -0.0006 0.00645 0 0.000625 -0.000125 0.00125 -0.000225 0.001875 -0.000175 0.0019 -0.000425 0.003825 -0.000675 0.005725 0 0.0006 0 0.001175 -0.00025 0.001775 -0.00025 0.002575 -0.00065 0.00515 -0.0011 0.0077 -0.0003 0.002375 -0.000675 0.004725 -0.00115 0.0071 -0.000175 0.00135 -0.00045 0.0027 -0.000675 0.00405 -0.0007 0.00385 -0.001625 0.007675 -0.00275 0.011425 -0.002075 0.007025 -0.00465 0.0139 -0.00765 0.020575 -0.0013 0.0029 -0.0027 0.005825 -0.0041 0.008675 -0.00295 0.005875 -0.00625 0.011925 -0.0099 0.018175 -0.001825 0.00305 -0.0037 0.00625 -0.0057 0.009425l-0.00305 0.004825c-0.0031 0.004875 -0.006325 0.009775 -0.0097 0.01475 -0.00335 0.004975 -0.006975 0.01005 -0.01085 0.0152 -0.005025 0.006825 -0.010325 0.013825 -0.015925 0.020875l-0.00425 0.00535c-0.011975 0.014925 -0.02425 0.0296 -0.0368 0.044025l-0.009975 0.011275 -0.005075 0.0057c-0.006925 0.00775 -0.013875 0.015425 -0.0209 0.02305l-0.005375 0.005825c-0.00355 0.00385 -0.007275 0.007775 -0.010825 0.01165 -0.00365 0.00395 -0.00735 0.00785 -0.01105 0.011775l-0.011175 0.011775 -0.011325 0.011825c-0.003775 0.00395 -0.0076 0.007925 -0.011425 0.011875l-0.02305 0.023775c-0.110175 0.112975 -0.22625 0.225575 -0.265525 0.295825 -0.002625 0.0046 -0.004975 0.0093 -0.007125 0.0141 -0.005575 0.012775 -0.0079 0.0237 -0.006325 0.032525 0.0005 0.0029 0.00155 0.0057 0.003025 0.008225 0.00225 0.00385 0.004925 0.007375 0.008025 0.010525 0.00145 0.0014 0.002925 0.00275 0.004575 0.00395 0.00805 0.00575 0.017825 0.0087 0.02775 0.0084h0.0031l0.003175 -0.0002 0.0032 -0.0004 0.00265 -0.000375c0.00035 -0.000025 0.0007 -0.0001 0.00105 -0.000175l0.002425 -0.000475 0.00065 -0.00015 0.00265 -0.000575 0.003825 -0.000975 0.003375 -0.001c0.002225 -0.0007 0.004475 -0.00145 0.00675 -0.0023 0.004925 -0.001725 0.009725 -0.00375 0.014425 -0.006 0.0012 -0.000575 0.002425 -0.0011 0.003575 -0.001725l0.003625 -0.0018c0.004725 -0.0024 0.009425 -0.004975 0.01415 -0.007775 0.003775 -0.002225 0.007525 -0.0045 0.011275 -0.006925l0.00365 -0.002425c0.001175 -0.00075 0.0024 -0.00155 0.0036 -0.00245l0.003625 -0.0024 0.0019 -0.00135 0.0052 -0.003625c0.004875 -0.003375 0.0094 -0.006825 0.014025 -0.010325l0.0004 -0.0003 0.0073 -0.00565c0.00995 -0.007875 0.01945 -0.0158 0.028 -0.023275l0.0057 -0.005025 0.00055 -0.0005 0.00295 -0.002625c0.007025 -0.006275 0.013275 -0.01215 0.018475 -0.017025l0.002125 -0.00205 0.005125 -0.004875 0.003075 -0.002975 0.001075 -0.0011 0.0003 -0.0003c0.0026 -0.0026 0.0026 -0.0026 0.0052 -0.005225l0.000225 -0.000225 0.000975 -0.000875c0.0003 -0.000325 0.0007 -0.00065 0.001175 -0.00105l0.000375 -0.00035 0.001025 -0.000925 0.005525 -0.004875 0.0031 -0.0028c0.001525 -0.0013 0.003175 -0.0028 0.00485 -0.0044l0.003725 -0.00325c0.00065 -0.00055 0.0013 -0.001175 0.001975 -0.001775l0.0039 -0.0034 0.005725 -0.005 0.003025 -0.002625c0.0118 -0.0103 0.0262 -0.0227 0.0427 -0.0367l0.00675 -0.0057 0.0112 -0.009375 0.011425 -0.009575c0.014925 -0.012375 0.031025 -0.02555 0.048025 -0.03925l0.01115 -0.00895c0.009525 -0.007575 0.0193 -0.0153 0.029175 -0.023075 0.003975 -0.003125 0.008025 -0.00625 0.01215 -0.00935 0.01015 -0.007825 0.020325 -0.015625 0.03055 -0.0233 0.0233 -0.0176 0.04735 -0.03525 0.07165 -0.052425l0.010475 -0.007275c0.007275 -0.00505 0.01455 -0.010075 0.02185 -0.014975l0.0066 -0.0045c0.013075 -0.0088 0.02625 -0.0174 0.039525 -0.025825l0.006625 -0.00415 0.006525 -0.004075c0.00655 -0.00405 0.0131 -0.008075 0.019575 -0.011975l0.0065 -0.00385 0.013 -0.007575c0.004275 -0.002475 0.0085 -0.0049 0.01275 -0.007275l0.00255 -0.00145 0.0101 -0.0055c0.004175 -0.0023 0.0084 -0.0045 0.01255 -0.00665l0.00625 -0.0032 0.006025 -0.003075c0.0138 -0.006925 0.02785 -0.013325 0.04215 -0.0192 0.00195 -0.0008 0.003875 -0.0016 0.0058 -0.00245 0.003825 -0.0016 0.00765 -0.00305 0.011425 -0.004375 0.003775 -0.001275 0.0075 -0.0026 0.01115 -0.0039 0.00335 -0.001125 0.006575 -0.00215 0.009725 -0.003125l0.001075 -0.000325c0.001675 -0.000525 0.00335 -0.001 0.00505 -0.00145l0.000475 -0.000125c0.003425 -0.000975 0.00685 -0.001875 0.0103 -0.0027h0.000275c0.005075 -0.001225 0.010025 -0.00225 0.01485 -0.00305 0.001675 -0.000275 0.0033 -0.00055 0.004875 -0.000775 0.0047 -0.0007 0.009425 -0.0012 0.01415 -0.001525 0.003 -0.0002 0.006 -0.0003 0.009 -0.0003h0.002275c0.00305 0 0.005975 0.0002 0.008875 0.0005 0.00135 0 0.002675 0.00025 0.003975 0.000425h0.00055c0.0013 0.00015 0.002625 0.00035 0.0039 0.000625 0.001275 0.000275 0.0026 0.000475 0.00385 0.000775h0.000425c0.00125 0.000275 0.002425 0.000625 0.003725 0.000975 0.010375 0.0028 0.0199 0.008075 0.027825 0.01535l0.0007 0.0007 0.001375 0.00135 0.001375 0.00145c0.010875 0.01145 0.0199 0.024575 0.0267 0.038875l0.00105 0.002425c0.0023 0.005425 0.004125 0.01105 0.0054 0.0168 0.00355 0.016075 0.0026 0.0328 -0.002775 0.048325 -0.0023 0.006775 -0.005125 0.01335 -0.008475 0.01965l-0.002225 0.004025c-0.008475 0.0142 -0.018475 0.027425 -0.02985 0.03945l-0.00245 0.002575c-0.00535 0.005675 -0.010925 0.0112 -0.01665 0.0165 -0.001825 0.0017 -0.0037 0.003425 -0.0056 0.005125l-0.002875 0.0026c-0.005975 0.0053 -0.012075 0.010475 -0.018275 0.015525 -0.0011 0.000875 -0.0022 0.001725 -0.003275 0.00265 -0.0043 0.003475 -0.008775 0.007025 -0.013375 0.01055 -0.015925 0.012175 -0.03215 0.0239 -0.048675 0.035225 -0.009725 0.006675 -0.019775 0.013375 -0.03015 0.0202 -0.019325 0.012675 -0.038825 0.0251 -0.058475 0.037275 -0.005675 0.0035 -0.0114 0.00705 -0.0172 0.010575 -0.05345 0.032875 -0.1127 0.068025 -0.175875 0.10625l-0.01635 0.00995c-0.0179 0.010925 -0.0348 0.02135 -0.0507 0.031275l-0.008025 0.00505 -0.01515 0.009725c-0.006 0.0038 -0.01185 0.00755 -0.017525 0.01125 -0.0043 0.00275 -0.008475 0.00545 -0.012575 0.00815l-0.0081 0.005325c-0.003925 0.002575 -0.00785 0.00515 -0.01175 0.0078l-0.0038 0.0024c-0.004025 0.0027 -0.00795 0.005325 -0.01175 0.00795l-0.006225 0.004225 -0.0073 0.005075 -0.00675 0.0047c-0.01065 0.007475 -0.02115 0.015125 -0.031575 0.022875l-0.00365 0.002775c-0.0041 0.0031 -0.008075 0.0062 -0.0119 0.009225l-0.005 0.003975c-0.008425 0.006775 -0.01605 0.013275 -0.02295 0.01945l-0.003375 0.0031c-0.001925 0.001775 -0.003825 0.003525 -0.005625 0.005275 -0.001275 0.0012 -0.00245 0.002425 -0.003725 0.003625l-0.00175 0.001725c-0.0039 0.0039 -0.007675 0.007875 -0.011325 0.011975l-0.0018 0.002075c-0.004 0.004625 -0.007475 0.00905 -0.01055 0.013375l-0.00135 0.00195c-0.003525 0.00515 -0.00665 0.010625 -0.009325 0.0163l-0.000925 0.001975 -0.000575 0.0014 -0.00045 0.001175 -0.000625 0.001675c-0.0002 0.00055 -0.000575 0.001575 -0.0008 0.002425 -0.0011 0.00325 -0.001925 0.006575 -0.00245 0.009975l-0.000275 0.001825 -0.000225 0.00165 -0.000125 0.0016v0.00855c0 0.0007 0 0.001425 0.00015 0.002175 0.000025 0.000425 0.000075 0.00085 0.00015 0.0013 0 0.0007 0.000175 0.0014 0.00025 0.00215l0.000525 0.002975v0.00015c0.0002 0.00095 0.000375 0.0019 0.000625 0.00285 0.00025 0.00095 0.0005 0.002 0.0008 0.003 0.00085 0.003075 0.001925 0.006125 0.00315 0.009075 0 0.000225 0.000175 0.000475 0.00025 0.000675 0.00035 0.00075 0.000625 0.0015 0.001 0.002225 0.001325 0.0031 0.002825 0.006125 0.00445 0.009075l0.0017 0.003075 0.0018 0.0031 0.001875 0.0031c0.000325 0.000525 0.000675 0.000975 0.001075 0.00145l0.000625 0.00065 0.00065 0.0006 0.00075 0.00055c0.000475 0.000375 0.001 0.00065 0.00155 0.00095 0.000525 0.00025 0.001125 0.000525 0.001725 0.00075 0.00065 0.0002 0.0013 0.0004 0.001975 0.000575 0.015675 0.003525 0.047875 -0.009475 0.090675 -0.032075l0.007675 -0.004075 0.013025 -0.007075 0.006375 -0.00355c0.004525 -0.002425 0.00915 -0.00515 0.01385 -0.00785l0.008625 -0.00485c0.056575 -0.032575 0.1242 -0.07445 0.194075 -0.1153 0.006525 -0.003825 0.0131 -0.007625 0.019675 -0.011425l0.0132 -0.008425c0.0066 -0.0038 0.013175 -0.00755 0.019775 -0.01125 0.0281 -0.015975 0.05655 -0.031325 0.085325 -0.046025l0.0129 -0.00655c0.0086 -0.004225 0.0171 -0.008375 0.0255 -0.012375 0.01625 -0.007725 0.0327 -0.015025 0.0493 -0.02195l0.0091 -0.0037 0.0011 -0.00045c0.0482 -0.019075 0.091925 -0.0309 0.127275 -0.0309 0.007675 -0.00005 0.0153 0.000575 0.02285 0.001875h0.000225c0.00245 0.000425 0.00465 0.000925 0.006875 0.0015h0.0004c0.003275 0.000775 0.006475 0.001775 0.009575 0.003025 0.002475 0.0009 0.00485 0.001975 0.007175 0.003225 0.010125 0.005125 0.0188 0.0127 0.02525 0.02205 0.00055 0.000775 0.001075 0.0016 0.00155 0.00245 0.0024 0.003625 0.00445 0.007475 0.00615 0.011475 0.001 0.002325 0.001925 0.0047 0.0028 0.0073 0.00085 0.0026 0.001625 0.0051 0.0024 0.007775 0.005775 0.0206 0.0052 0.0424 -0.001625 0.06265v-0.000075Z" stroke-width="0.25"></path>
  <path fill="#ffd21e" d="M5.076225 11.888375v-0.0133c0 -1.136925 -0.9215 -2.058675 -2.058675 -2.058675 -1.1369275 0 -2.0589575 0.92175 -2.0589575 2.058675l-0.00006 0.00445 0 0.00885c0.0001625 0.004425 0.0002075 0.00885 0.0001675 0.0133l0.0001625 0.009775 0.000055 0.003525 0.000135 0.004825c0.000055 0.002625 0.0001375 0.0052 0.0001375 0.0078l0.00027 0.010575 0.000435 0.012425 0.0001375 0.004075 0.0005425 0.01285v0.0006l0.00076 0.015v0.0004c0.0002725 0.005125 0.000545 0.01025 0.00087 0.015375 0.0002725 0.00475 0.00057 0.009475 0.000895 0.0142l0.0000825 0.00085c0.00024 0.00405 0.00051 0.008125 0.000815 0.012175l0.0000825 0.00105c0.00027 0.0039 0.00057 0.00785 0.000895 0.011725l0.000055 0.000775 0.0005425 0.006775c0.0016275 0.0196 0.00353 0.039175 0.005705 0.058725l0.0001375 0.001225 0.00163 0.014325 0.0018725 0.015125c0.00126 0.01005 0.0026 0.020075 0.0040225 0.0301 0.0008475 0.00605 0.0017275 0.012075 0.002635 0.0181l0.000135 0.00075c0.00203 0.013625 0.00422 0.027275 0.006575 0.04085 0.006755 0.039425 0.01469 0.07865 0.0237975 0.1176l0.000135 0.000625 0.00087 0.003675c0.000815 0.003475 0.00163 0.00695 0.0025 0.01045l0.0014925 -0.001825c0.0597675 -0.071425 0.145505 -0.110825 0.24143 -0.110825 0.07688 0 0.1557725 0.0254 0.2348 0.075525 0.05243 0.0333 0.110405 0.0923 0.1700625 0.1665 0.0552025 -0.0767 0.1325725 -0.127625 0.22108 -0.14155 0.0168975 -0.00265 0.0339575 -0.004 0.05102 -0.004025 0.202035 0 0.3238225 0.175325 0.369735 0.33305 0.022685 0.0533 0.132165 0.29585 0.2971925 0.4602 0.2509 0.250675 0.313775 0.509375 0.189525 0.7862h0.0004c0.008475 0.000925 0.016975 0.0018 0.025525 0.002575 0.005075 0.0005 0.01015 0.000975 0.015225 0.001425l0.0018 0.00015c0.003725 0.00035 0.007475 0.000675 0.011225 0.00095l0.010325 0.00085c0.009825 0.00075 0.019675 0.001425 0.0296 0.0021l0.007825 0.00045 0.006225 0.00035 0.003875 0.000225 0.012125 0.00065 0.003325 0.000125 0.01275 0.00055 0.01415 0.00055 0.011425 0.000325 0.0019 0.000075c0.002375 0.000075 0.004825 0.0002 0.00725 0.0002l0.002575 0.00005c0.016025 0.000375 0.032025 0.000575 0.048075 0.000575h0.017l0.012175 -0.00015c0.002975 -0.00015 0.00595 -0.00015 0.008925 -0.00015h0.004725l0.0041 -0.000075c0.0016 -0.000075 0.00325 -0.000125 0.00485 -0.000125h0.00485l0.00955 -0.000275 0.014325 -0.000475 0.015825 -0.000675c0.004525 -0.0002 0.00905 -0.000425 0.013575 -0.00065l0.004875 -0.000275 0.0072 -0.000425 0.00425 -0.000225 0.003175 -0.0002 0.0146 -0.000975c0.00485 -0.0003 0.009725 -0.000675 0.014575 -0.001075l0.013225 -0.001025 0.0093 -0.000775 0.0102 -0.000925c0.01045 -0.000975 0.020875 -0.002025 0.031275 -0.0031 0.006625 -0.00075 0.0132 -0.001475 0.0198 -0.00225l0.0116 -0.0014c-0.122225 -0.275725 -0.05895 -0.533275 0.190925 -0.782925 0.164675 -0.16455 0.2741 -0.407225 0.296925 -0.460475 0.046 -0.1577 0.16755 -0.333075 0.369725 -0.333075 0.0171 0.000025 0.03415 0.001375 0.051025 0.00405 0.088425 0.013925 0.165825 0.064875 0.2211 0.14155 0.0597 -0.0742 0.11765 -0.1332 0.170075 -0.1665 0.079025 -0.050125 0.157975 -0.075525 0.234775 -0.075525 0.08465 0 0.1614 0.0307 0.21935 0.086975 0.003175 -0.014175 0.006225 -0.02835 0.009175 -0.0426 0.0018 -0.008875 0.00355 -0.017775 0.0053 -0.026725 0.0021 -0.010975 0.004125 -0.022 0.005975 -0.033025 0.000475 -0.003 0.001 -0.005975 0.001575 -0.009 0.0009 -0.0047 0.001675 -0.00935 0.002425 -0.014075l0.000275 -0.0018 0.00195 -0.0123 0.0019 -0.012475 0.000025 -0.000125c0.00075 -0.005225 0.00155 -0.01045 0.00225 -0.0157 0.000575 -0.003975 0.001125 -0.007925 0.001625 -0.011925l0.000325 -0.0023 0.0017 -0.012975 0.001375 -0.01105c0.00085 -0.007275 0.00165 -0.014575 0.00245 -0.021875 0.00035 -0.0029 0.00065 -0.00585 0.00095 -0.008775l0.000275 -0.00235c0.0005 -0.004875 0.000975 -0.0097 0.0014 -0.014575l0.0011 -0.0113c0.00225 -0.02505 0.004075 -0.0501 0.005475 -0.0752v-0.00015l0.00075 -0.013325 0.000125 -0.002975 0.00055 -0.01265c0.0002 -0.00475 0.0004 -0.00955 0.000575 -0.014425v-0.00035l0.000125 -0.0035c0.000125 -0.003 0.00025 -0.005975 0.00025 -0.00895l0.00005 -0.0012c0.0001 -0.002775 0.000225 -0.00565 0.000225 -0.008525l0.000075 -0.002425c0.000075 -0.00285 0.00015 -0.005675 0.00015 -0.00855l0.000075 -0.0024c0.000075 -0.00365 0.00015 -0.00725 0.00015 -0.0109l0.0002 -0.013425Zm-2.56915 2.056775c0.163025 -0.239125 0.151475 -0.418625 -0.07223 -0.6422 -0.223715 -0.2236 -0.3539775 -0.550675 -0.3539775 -0.550675s-0.0486025 -0.18995 -0.15944 -0.172475c-0.11084 0.017425 -0.19215 0.301275 0.0399075 0.474875 0.232055 0.173725 -0.0461575 0.291475 -0.13548 0.128475 -0.08935 -0.16305 -0.3330625 -0.582175 -0.4596575 -0.6623 -0.1264325 -0.080175 -0.2153475 -0.03525 -0.1855475 0.129975 0.014805 0.082025 0.152485 0.221975 0.2811725 0.352625 0.13051 0.132725 0.2517 0.255925 0.22581 0.299375 -0.0514275 0.0866 -0.232545 -0.101725 -0.232545 -0.101725s-0.5672375 -0.516175 -0.6905725 -0.3817c-0.1138025 0.123975 0.061695 0.22935 0.332245 0.39175 0.02301 0.013825 0.0467 0.02805 0.07096 0.042725 0.309425 0.18735 0.333605 0.23675 0.289595 0.307525 -0.01622 0.0262 -0.119805 -0.036 -0.247215 -0.1125 -0.2171975 -0.1304 -0.5036675 -0.30235 -0.544145 -0.148425 -0.0350175 0.1332 0.175685 0.2148 0.3667475 0.288775 0.159195 0.061675 0.3048075 0.11805 0.283345 0.194625 -0.022195 0.07935 -0.142515 0.013175 -0.27411 -0.0592 -0.14765 -0.08125 -0.309425 -0.170275 -0.3624 -0.069825 -0.1000825 0.1899 0.6903 0.413475 0.69682 0.4151 0.255365 0.06625 0.90383 0.206575 1.1306675 -0.125575l0.00005 0.000775Zm1.050275 0c-0.163075 -0.239125 -0.1515 -0.418625 0.072225 -0.6422 0.223725 -0.2236 0.353975 -0.550675 0.353975 -0.550675s0.048575 -0.18995 0.159425 -0.172475c0.110825 0.017425 0.192175 0.301275 -0.039925 0.474875 -0.232075 0.173575 0.046175 0.291475 0.135525 0.128475 0.089325 -0.16305 0.33305 -0.582175 0.459375 -0.6623 0.126325 -0.08015 0.215375 -0.03525 0.185575 0.129975 -0.0148 0.082025 -0.152475 0.222025 -0.281175 0.3529 -0.130475 0.132675 -0.251675 0.255875 -0.225775 0.299375 0.0514 0.0866 0.232675 -0.10185 0.232675 -0.10185s0.56725 -0.51615 0.690575 -0.381675c0.1138 0.12395 -0.061725 0.22935 -0.33225 0.391725 -0.023 0.0138 -0.046675 0.028025 -0.070925 0.0427 -0.309425 0.187325 -0.3336 0.236775 -0.2896 0.307525 0.016225 0.0262 0.1198 -0.035975 0.2472 -0.11245 0.217225 -0.1304 0.50365 -0.302375 0.544125 -0.148475 0.035025 0.1332 -0.175675 0.214825 -0.36675 0.288775 -0.159175 0.061675 -0.3048 0.11805 -0.283325 0.194625 0.022175 0.07935 0.14245 0.01315 0.273825 -0.059225 0.14765 -0.08125 0.309425 -0.1703 0.3624 -0.069825 0.100075 0.19005 -0.6903 0.413475 -0.696825 0.415125 -0.25535 0.066425 -0.903825 0.20675 -1.1304 -0.1254l0.00005 0.000475Z" stroke-width="0.25"></path>
  <path fill="#32343d" d="M3.6881 11.3146c0.032075 0.01135 0.05595 0.04595 0.078675 0.078825 0.0307 0.04445 0.059275 0.0858 0.103125 0.0625 0.05175 -0.0275 0.09415 -0.0697 0.1219 -0.121325 0.027725 -0.051625 0.039525 -0.110275 0.0339 -0.1686 -0.0042 -0.0436 -0.018 -0.085725 -0.040425 -0.12335 -0.02245 -0.037625 -0.05295 -0.069825 -0.0893 -0.09425 -0.036375 -0.024425 -0.077725 -0.04045 -0.121025 -0.046975 -0.043325 -0.006525 -0.08755 -0.00335 -0.1295 0.0093 -0.0561 0.0169 -0.105925 0.050025 -0.1432 0.09525 -0.03725 0.0452 -0.060275 0.100425 -0.066175 0.1587 -0.005875 0.0583 0.005675 0.117025 0.033175 0.16875 0.020325 0.038225 0.0654 0.020225 0.113 0.001175 0.037325 -0.014925 0.076175 -0.03045 0.10585 -0.02Zm-1.3958175 0.000025c-0.0320825 0.01135 -0.05599 0.04595 -0.0787 0.078825 -0.0307 0.044425 -0.0592775 0.0858 -0.103125 0.0625 -0.0386575 -0.020575 -0.0722625 -0.049475 -0.098425 -0.0846 -0.02616 -0.035125 -0.0442 -0.0756 -0.0528375 -0.11855 -0.00864 -0.042925 -0.0076625 -0.08725 0.00288 -0.12975 0.0105675 -0.042525 0.0303975 -0.08215 0.05808 -0.116075 0.0277375 -0.0339 0.06262 -0.06125 0.102175 -0.080075 0.0395525 -0.018825 0.0828025 -0.0286 0.126595 -0.0287 0.0437925 -0.0001 0.0870675 0.009525 0.126705 0.02815 0.039635 0.018625 0.0746525 0.045825 0.102525 0.079575 0.03727 0.045225 0.06032 0.10045 0.066195 0.15875 0.005875 0.0583 -0.005675 0.117025 -0.033175 0.16875 -0.0203875 0.038225 -0.0654825 0.0202 -0.1130775 0.00115 -0.0373 -0.014925 -0.07615 -0.030425 -0.105815 -0.01995Zm1.1798425 1.27005c0.221225 -0.1743 0.30235 -0.45885 0.30235 -0.634075 0 -0.13855 -0.093225 -0.09495 -0.24245 -0.021075l-0.0084 0.004175c-0.137 0.067825 -0.319475 0.158125 -0.519425 0.158125 -0.200175 0 -0.3825 -0.090325 -0.519415 -0.15815 -0.1540625 -0.076325 -0.2506925 -0.124175 -0.2506925 0.01695 0 0.1808 0.0864425 0.477575 0.3238325 0.6501 0.031275 -0.063575 0.07535 -0.12 0.129475 -0.16575 0.054075 -0.04575 0.11705 -0.079825 0.18495 -0.1001 0.023675 -0.007075 0.048075 0.0337 0.073075 0.075425 0.0241 0.0403 0.0487 0.081475 0.073775 0.081475 0.026675 0 0.052925 -0.040575 0.07855 -0.080225 0.02675 -0.0414 0.052825 -0.08175 0.078075 -0.0737 0.127025 0.040775 0.233275 0.1292 0.296375 0.246725l-0.000075 0.0001Z" stroke-width="0.25"></path>
  <path fill="#ff323d" d="M3.470675 12.585475c-0.115225 0.090775 -0.26835 0.15165 -0.4678 0.15165 -0.187375 0 -0.333875 -0.053725 -0.44635 -0.135525 0.031325 -0.06355 0.0754 -0.119975 0.1295 -0.1657 0.054075 -0.045725 0.11705 -0.079825 0.184925 -0.10015 0.046525 -0.013875 0.0958 0.1569 0.146825 0.1569 0.054625 0 0.10725 -0.1697 0.15665 -0.153925 0.126975 0.040825 0.2332 0.12925 0.296375 0.24675h-0.000125Z" stroke-width="0.25"></path>
  <path fill="#ffad03" d="M1.7627075 11.5613c-0.0210225 0.01415 -0.044635 0.024 -0.069465 0.029 -0.0248425 0.005 -0.0504225 0.00505 -0.07528 0.000175 -0.02486 -0.004925 -0.0485175 -0.014675 -0.0696 -0.028725 -0.02108 -0.014075 -0.0391725 -0.032125 -0.053245 -0.053225 -0.01408 -0.02105 -0.023865 -0.0447 -0.0287975 -0.06955 -0.004925 -0.02485 -0.0048975 -0.050425 0.0000825 -0.0753 0.00498 -0.024825 0.014815 -0.048425 0.0289325 -0.069475 0.014125 -0.02105 0.0322725 -0.039075 0.05338 -0.0531 0.0424625 -0.028175 0.0943775 -0.038375 0.1443375 -0.02835 0.0499575 0.010025 0.09394 0.03945 0.1222475 0.0818 0.0283075 0.042375 0.038685 0.094225 0.028825 0.144225 -0.0098625 0.05 -0.0391475 0.094075 -0.0814175 0.122525Zm2.7546925 0c-0.02105 0.01415 -0.04465 0.024 -0.069475 0.029 -0.024825 0.005 -0.050425 0.00505 -0.075275 0.000175 -0.02485 -0.004925 -0.048525 -0.014675 -0.0696 -0.028725 -0.021075 -0.014075 -0.039175 -0.032125 -0.05325 -0.053225 -0.0141 -0.02105 -0.023875 -0.0447 -0.0288 -0.06955 -0.004925 -0.02485 -0.004875 -0.050425 0.000075 -0.0753 0.004975 -0.024825 0.014825 -0.048425 0.02895 -0.069475 0.014125 -0.02105 0.032275 -0.039075 0.053375 -0.0531 0.04245 -0.028175 0.094375 -0.038375 0.144325 -0.02835 0.049975 0.010025 0.093925 0.03945 0.12225 0.0818 0.028325 0.042375 0.0387 0.094225 0.028825 0.144225 -0.00985 0.05 -0.03915 0.094075 -0.0814 0.122525Z" stroke-width="0.25"></path>
</svg>